HIERARCHY
ROOT Hips
{
	OFFSET 0.000000 0.000000 0.000000
	CHANNELS 6 Xposition Yposition Zposition Zrotation Yrotation Xrotation 
	JOINT LeftUpLeg_virtual
	{
		OFFSET 0.000000 0.000000 0.000000
		CHANNELS 3 Zrotation Yrotation Xrotation
		JOINT LeftUpLeg
		{
			OFFSET 8.479694 -4.795517 -0.379053
			CHANNELS 3 Zrotation Yrotation Xrotation
			JOINT LeftLeg
			{
				OFFSET 0.485052 -32.551468 0.112863
				CHANNELS 3 Zrotation Yrotation Xrotation
				JOINT LeftFoot
				{
					OFFSET 0.438033 -32.635670 -3.012641
					CHANNELS 3 Zrotation Yrotation Xrotation
					JOINT LeftToeBase
					{
						OFFSET 0.970169 -13.225353 11.864223
						CHANNELS 3 Zrotation Yrotation Xrotation
						End Site
						{
							OFFSET 0.000000 0.000000 0.000000
						}
					}
				}
			}
		}
	}
	JOINT RightUpLeg_virtual
	{
		OFFSET 0.000000 0.000000 0.000000
		CHANNELS 3 Zrotation Yrotation Xrotation
		JOINT RightUpLeg
		{
			OFFSET -8.479694 -4.795517 -0.379053
			CHANNELS 3 Zrotation Yrotation Xrotation
			JOINT RightLeg
			{
				OFFSET -0.484100 -32.551483 0.112903
				CHANNELS 3 Zrotation Yrotation Xrotation
				JOINT RightFoot
				{
					OFFSET -0.438985 -32.635651 -3.012681
					CHANNELS 3 Zrotation Yrotation Xrotation
					JOINT RightToeBase
					{
						OFFSET -0.970169 -13.225354 11.864223
						CHANNELS 3 Zrotation Yrotation Xrotation
						End Site
						{
							OFFSET 0.000000 0.000000 0.000000
						}
					}
				}
			}
		}
	}
	JOINT Spine_virtual
	{
		OFFSET 0.000000 0.000000 0.000000
		CHANNELS 3 Zrotation Yrotation Xrotation
		JOINT Spine
		{
			OFFSET 0.000000 7.722015 1.166203
			CHANNELS 3 Zrotation Yrotation Xrotation
			JOINT Spine1
			{
				OFFSET 0.000000 12.024086 0.248766
				CHANNELS 3 Zrotation Yrotation Xrotation
				JOINT Spine2
				{
					OFFSET -0.000000 11.503036 -0.491240
					CHANNELS 3 Zrotation Yrotation Xrotation
					JOINT Neck_virtual
					{
						OFFSET 0.000000 0.000000 0.000000
						CHANNELS 3 Zrotation Yrotation Xrotation
						JOINT Neck
						{
							OFFSET 0.000000 18.430687 -3.123054
							CHANNELS 3 Zrotation Yrotation Xrotation
							JOINT Head
							{
								OFFSET -0.000000 9.051071 1.034021
								CHANNELS 3 Zrotation Yrotation Xrotation
								End Site
								{
									OFFSET 0.000000 0.000000 0.000000
								}
							}
						}
					}
					JOINT LeftShoulder_virtual
					{
						OFFSET 0.000000 0.000000 0.000000
						CHANNELS 3 Zrotation Yrotation Xrotation
						JOINT LeftShoulder
						{
							OFFSET 6.197824 13.665230 -4.064723
							CHANNELS 3 Zrotation Yrotation Xrotation
							JOINT LeftArm
							{
								OFFSET 7.778132 -0.187073 -1.709282
								CHANNELS 3 Zrotation Yrotation Xrotation
								JOINT LeftForeArm
								{
									OFFSET 21.954697 0.000000 -2.041093
									CHANNELS 3 Zrotation Yrotation Xrotation
									JOINT LeftHand
									{
										OFFSET 22.992908 0.000000 -0.870901
										CHANNELS 3 Zrotation Yrotation Xrotation
										End Site
										{
											OFFSET 0.000000 0.000000 0.000000
										}
									}
								}
							}
						}
					}
					JOINT RightShoulder_virtual
					{
						OFFSET 0.000000 0.000000 0.000000
						CHANNELS 3 Zrotation Yrotation Xrotation
						JOINT RightShoulder
						{
							OFFSET -6.197824 13.665230 -4.064723
							CHANNELS 3 Zrotation Yrotation Xrotation
							JOINT RightArm
							{
								OFFSET -7.778132 -0.187073 -1.709282
								CHANNELS 3 Zrotation Yrotation Xrotation
								JOINT RightForeArm
								{
									OFFSET -21.954697 0.000000 -2.041093
									CHANNELS 3 Zrotation Yrotation Xrotation
									JOINT RightHand
									{
										OFFSET -22.992908 0.000000 -0.870901
										CHANNELS 3 Zrotation Yrotation Xrotation
										End Site
										{
											OFFSET 0.000000 0.000000 0.000000
										}
									}
								}
							}
						}
					}
				}
			}
		}
	}
}
MOTION
Frames: 7
Frame Time: 0.033333
-0.314170 81.755196 33.483387 -179.947399 -17.239428 179.719776 -5.828297 -5.616458 15.101422 6.181656 -2.280675 -26.365046 -0.220012 2.660390 24.806142 0.592536 -8.608577 -9.456346 0.000000 0.000000 0.000000 -1.841045 -8.539389 14.739844 -0.044310 -18.869400 -23.569607 -1.093086 2.232624 26.261464 8.235512 6.983235 -7.647055 0.000000 0.000000 0.000000 -2.424543 -4.523930 5.727346 -4.785431 5.398296 -6.370270 -0.151675 -1.981190 9.694706 0.007587 0.000921 -0.075726 0.363547 -1.343657 7.630091 7.399386 -4.207628 -5.976660 0.000000 0.000000 0.000000 1.353164 -1.052005 4.339930 -2.113631 -4.649162 3.289977 -53.878619 -21.721229 12.776274 160.998077 -86.540450 -134.214529 0.000000 0.000000 0.000000 -2.317874 0.621319 3.092059 11.244813 15.099281 6.759008 11.507907 44.219707 -8.956305 -10.911212 82.689139 -10.758977 0.000000 0.000000 0.000000 
-0.576641 81.732384 33.418507 -179.877717 -16.648494 179.700337 -5.970688 -5.085457 15.406885 6.279150 -2.090912 -26.858681 -0.236963 2.759380 25.193380 0.763253 -8.541823 -9.604635 0.000000 0.000000 0.000000 -1.633554 -8.054042 15.124139 -0.119074 -19.018863 -23.936388 -1.358754 2.384414 26.087452 8.561007 7.196578 -7.526516 0.000000 0.000000 0.000000 -2.633027 -4.007327 6.112708 -5.134629 5.045769 -6.633644 -0.099586 -2.013803 9.841824 -0.013305 0.006719 -0.073704 0.392134 -1.339374 7.750231 7.374615 -4.123137 -6.063450 0.000000 0.000000 0.000000 1.456918 -1.155295 4.536700 -1.887024 -4.794783 3.244046 -53.551470 -21.425398 12.457367 158.316968 -86.702831 -131.444983 0.000000 0.000000 0.000000 -2.219957 0.430636 3.233535 10.364795 13.898286 6.659510 14.441854 41.550066 -5.257472 -22.037523 86.938869 -22.597771 0.000000 0.000000 0.000000 
-0.860822 81.724770 33.361130 -179.837023 -16.105064 179.695406 -6.169618 -4.814813 15.762663 6.333834 -2.101463 -27.397050 -0.082452 3.201862 25.565366 0.838835 -8.519165 -9.628250 0.000000 0.000000 0.000000 -1.654871 -7.817062 15.492537 -0.052750 -19.216643 -24.212867 -1.480450 2.851886 25.681916 8.797220 7.316057 -7.370084 0.000000 0.000000 0.000000 -3.009994 -3.911054 6.475294 -5.335468 4.556116 -6.854927 -0.046136 -1.851399 9.971414 0.016717 0.124505 -0.063379 0.328237 -1.582321 7.834846 7.175846 -3.758061 -6.256923 0.000000 0.000000 0.000000 1.402120 -1.237339 4.687514 -1.819201 -5.022588 3.254621 -53.161582 -21.406462 12.189744 157.395699 -86.893352 -130.466066 0.000000 0.000000 0.000000 -2.230297 0.397701 3.391884 9.695482 12.739312 6.709825 16.668906 37.241767 -2.336858 -48.751742 88.425419 -49.880533 0.000000 0.000000 0.000000 
-1.172256 81.733696 33.315613 -179.846339 -15.642409 179.684819 -6.394948 -4.730288 16.098973 6.300622 -2.124612 -27.855473 0.114042 3.581285 25.894366 0.937498 -8.369932 -9.534814 0.000000 0.000000 0.000000 -1.741624 -7.727755 15.743938 -0.005784 -19.456443 -24.361685 -1.504257 3.421323 25.186510 9.036828 7.438282 -7.211661 0.000000 0.000000 0.000000 -3.285131 -3.655809 6.814270 -5.563093 4.458929 -7.007737 -0.108395 -2.077850 10.070504 -0.042093 -0.038307 -0.086193 0.347355 -1.522000 7.885404 6.827225 -3.699619 -6.572645 0.000000 0.000000 0.000000 1.444057 -1.219917 4.800864 -1.758494 -5.297949 3.480628 -52.909811 -21.670104 12.050941 154.784791 -87.022703 -127.813726 0.000000 0.000000 0.000000 -2.232642 0.484711 3.551234 9.254951 11.855112 6.850256 17.536893 32.400713 -0.973963 -31.661687 87.411163 -33.120222 0.000000 0.000000 0.000000 
-1.492271 81.756531 33.298080 -179.813555 -15.235123 179.660681 -6.578974 -4.791511 16.367565 6.220601 -2.146673 -28.188228 0.336528 3.922388 26.164356 1.010049 -8.154442 -9.422649 0.000000 0.000000 0.000000 -1.821977 -7.750398 15.898309 0.030927 -19.749712 -24.359711 -1.431634 4.018540 24.738638 9.228273 7.514624 -7.023130 0.000000 0.000000 0.000000 -3.481205 -3.682350 7.083464 -5.689595 4.298676 -7.061467 -0.207350 -2.054119 10.133246 -0.042004 -0.009089 -0.073341 0.169472 -1.441581 7.871292 6.382167 -3.462466 -6.969531 0.000000 0.000000 0.000000 1.339626 -1.211425 4.841864 -1.739090 -5.509239 3.553428 -52.761528 -22.000396 11.971517 158.027560 -87.120497 -130.996908 0.000000 0.000000 0.000000 -2.270861 0.396283 3.713932 9.058933 11.476575 7.013748 17.121876 28.192873 -1.008070 -14.110554 83.784066 -15.614277 0.000000 0.000000 0.000000 
-1.816567 81.781960 33.289562 -179.801697 -14.991763 179.659575 -6.747914 -4.943453 16.575032 6.066555 -2.160674 -28.406593 0.526103 4.189773 26.340549 1.039266 -7.918424 -9.300460 0.000000 0.000000 0.000000 -1.916653 -7.859288 16.007079 0.018747 -20.122898 -24.293979 -1.318136 4.534223 24.450653 9.401159 7.561776 -6.805790 0.000000 0.000000 0.000000 -3.652885 -3.849810 7.296934 -5.728252 4.216695 -7.098192 -0.331282 -2.043200 10.148339 -0.004225 -0.031580 -0.077431 -0.081857 -1.571126 7.813584 5.876816 -3.248014 -7.374891 0.000000 0.000000 0.000000 1.145402 -1.152612 4.814865 -1.744268 -5.714958 3.661531 -52.838483 -22.308045 12.257089 157.812422 -87.056423 -130.712185 0.000000 0.000000 0.000000 -2.438874 0.462263 3.821395 9.086836 11.549433 7.226653 15.667049 25.353193 -2.271482 -8.339891 77.918791 -9.600175 0.000000 0.000000 0.000000 
-2.169767 81.788902 33.270828 -179.789594 -14.809033 179.639426 -6.896709 -5.146352 16.780580 5.830760 -2.090634 -28.519259 0.698001 4.408841 26.486251 1.053754 -7.682010 -9.242627 0.000000 0.000000 0.000000 -2.024346 -8.041700 16.101179 -0.076311 -20.453623 -24.290413 -1.191481 4.972861 24.296839 9.646844 7.633475 -6.590557 0.000000 0.000000 0.000000 -3.777030 -4.140430 7.524375 -5.681671 4.251142 -7.103210 -0.515188 -2.004046 10.140261 -0.044594 -0.040498 -0.088304 -0.252079 -1.388761 7.691370 5.512028 -3.421891 -7.821757 0.000000 0.000000 0.000000 1.027418 -1.060173 4.706165 -1.721602 -5.951377 3.854117 -53.157023 -22.619124 12.782529 155.766794 -86.910790 -128.566591 0.000000 0.000000 0.000000 -2.525629 0.581259 3.847390 9.286931 12.021071 7.417258 13.430866 24.187059 -4.477169 -6.135185 70.832327 -6.869859 0.000000 0.000000 0.000000 
